<?xml version="1.0" standalone="no"?>
<!DOCTYPE svg PUBLIC "-//W3C//DTD SVG 20010904//EN"
 "http://www.w3.org/TR/2001/REC-SVG-20010904/DTD/svg10.dtd">
<svg version="1.0" xmlns="http://www.w3.org/2000/svg"
 width="656.000000pt" height="656.000000pt" viewBox="0 0 656.000000 656.000000"
 preserveAspectRatio="xMidYMid meet">
<metadata>
Created by potrace 1.11, written by Peter Selinger 2001-2013
</metadata>
<g transform="translate(0.000000,656.000000) scale(0.100000,-0.100000)"
fill="#000000" stroke="none">
<path d="M2695 6550 c-22 -5 -55 -11 -74 -15 -19 -3 -42 -10 -52 -16 -11 -5
-19 -7 -19 -5 0 12 -172 -63 -245 -107 -92 -56 -203 -155 -263 -235 -15 -21
-29 -39 -32 -42 -17 -16 -102 -162 -105 -180 -2 -12 -28 -86 -34 -95 -3 -5 -7
-14 -8 -20 -1 -5 -7 -30 -13 -55 -18 -72 -20 -81 -26 -160 -7 -106 -7 -430 1
-438 3 -4 299 -7 658 -7 l652 0 0 -144 0 -145 -1020 -1 c-561 -1 -1038 -5
-1060 -9 -22 -4 -56 -11 -75 -16 -19 -5 -46 -11 -60 -14 -57 -11 -248 -100
-295 -138 -5 -4 -35 -28 -65 -52 -194 -153 -325 -381 -368 -641 -9 -53 -9
-858 0 -915 4 -25 10 -60 13 -79 8 -42 58 -179 82 -224 9 -17 17 -34 18 -37 0
-3 10 -19 23 -37 12 -17 22 -36 22 -42 0 -6 4 -11 8 -11 4 0 16 -14 27 -32 20
-34 192 -208 206 -208 4 0 14 -6 21 -13 33 -32 173 -105 253 -132 67 -23 157
-43 220 -51 64 -8 672 -13 693 -6 9 3 12 130 12 592 l0 587 1340 0 c737 0
1342 2 1345 5 9 9 11 108 2 108 -5 0 -5 5 -1 11 8 14 8 134 0 148 -4 6 -4 11
1 11 9 0 8 83 -1 106 -3 8 -2 14 2 14 4 0 6 69 4 152 -1 84 -3 160 -2 168 0 8
0 35 1 60 0 25 0 50 -1 55 -1 6 -1 15 0 20 2 13 2 87 0 100 -1 6 -1 15 0 20 2
13 2 87 0 100 -1 6 -2 15 -1 20 7 36 4 895 -2 895 -5 0 -5 4 -2 10 5 9 10 96
5 110 0 3 -2 39 -4 80 -14 375 -266 728 -626 878 -179 75 -191 76 -680 78
-239 1 -453 -2 -475 -6z m-279 -786 c98 -47 109 -181 21 -249 -57 -43 -147
-35 -193 16 -108 121 26 302 172 233z"/>
<path d="M4780 4270 c0 -36 0 -302 -1 -591 l0 -526 -1342 0 -1342 0 -2 -1109
c-3 -1168 -3 -1156 41 -1319 28 -100 117 -264 193 -355 118 -142 297 -262 473
-318 139 -44 171 -47 620 -47 456 0 475 2 633 52 184 58 394 211 495 358 15
22 30 42 34 45 13 10 107 207 119 250 14 52 13 46 22 85 4 17 10 41 14 55 3
14 8 140 10 280 l5 256 -644 -1 c-353 0 -651 1 -661 3 -16 4 -17 17 -15 146
l3 141 1010 1 c556 0 1030 4 1055 8 121 22 169 35 256 71 298 123 515 372 601
690 l27 100 3 438 c2 241 0 443 -3 449 -4 6 -8 27 -10 47 -1 20 -7 51 -13 69
-5 17 -8 32 -6 32 3 0 -26 75 -78 203 -6 15 -15 27 -19 27 -4 0 -8 5 -8 11 0
12 -60 103 -72 107 -4 2 -8 8 -8 12 0 5 -30 40 -67 79 -88 90 -241 199 -283
203 -3 0 -16 8 -30 17 -27 18 -173 66 -230 76 -19 3 -51 8 -70 11 -19 3 -187
7 -372 8 l-338 1 0 -65z m-470 -3228 c94 -70 57 -237 -58 -258 -134 -25 -231
116 -153 223 52 72 140 87 211 35z"/>
</g>
</svg>
